<?xml version="1.0" encoding="utf-8"?>
<svg viewBox="137.4 288 749.186 200" width="749.186px" height="200px" xmlns="http://www.w3.org/2000/svg" xmlns:xlink="http://www.w3.org/1999/xlink">
  <defs>
    <clipPath id="p26bd5e0cd7">
      <path d="M 273.312 140.256 C 273.312 122.783246 269.870248 105.480393 263.183715 89.337673 C 256.497182 73.194954 246.695903 58.526303 234.3408 46.1712 C 221.985697 33.816097 207.317046 24.014818 191.174327 17.328285 C 175.031607 10.641752 157.728754 7.2 140.256 7.2 C 122.783246 7.2 105.480393 10.641752 89.337673 17.328285 C 73.194954 24.014818 58.526303 33.816097 46.1712 46.1712 C 33.816097 58.526303 24.014818 73.194954 17.328285 89.337673 C 10.641752 105.480393 7.2 122.783246 7.2 140.256 C 7.2 157.728754 10.641752 175.031607 17.328285 191.174327 C 24.014818 207.317046 33.816097 221.985697 46.1712 234.3408 C 58.526303 246.695903 73.194954 256.497182 89.337673 263.183715 C 105.480393 269.870248 122.783246 273.312 140.256 273.312 C 157.728754 273.312 175.031607 269.870248 191.174327 263.183715 C 207.317046 256.497182 221.985697 246.695903 234.3408 234.3408 C 246.695903 221.985697 256.497182 207.317046 263.183715 191.174327 C 269.870248 175.031607 273.312 157.728754 273.312 140.256 M 140.256 140.256 C 140.256 140.256 140.256 140.256 140.256 140.256 C 140.256 140.256 140.256 140.256 140.256 140.256 C 140.256 140.256 140.256 140.256 140.256 140.256 C 140.256 140.256 140.256 140.256 140.256 140.256 C 140.256 140.256 140.256 140.256 140.256 140.256 C 140.256 140.256 140.256 140.256 140.256 140.256 C 140.256 140.256 140.256 140.256 140.256 140.256 C 140.256 140.256 140.256 140.256 140.256 140.256 C 140.256 140.256 140.256 140.256 140.256 140.256 C 140.256 140.256 140.256 140.256 140.256 140.256 C 140.256 140.256 140.256 140.256 140.256 140.256 C 140.256 140.256 140.256 140.256 140.256 140.256 C 140.256 140.256 140.256 140.256 140.256 140.256 C 140.256 140.256 140.256 140.256 140.256 140.256 C 140.256 140.256 140.256 140.256 140.256 140.256 C 140.256 140.256 140.256 140.256 140.256 140.256 M 273.312 140.256 z "/>
    </clipPath>
  </defs>
  <g id="logo-group">
    <image id="container" x="272" y="144" width="480" height="480" style="display: none;" transform="translate(0 0)" xlink:href=""/>
    <g id="logo-center" transform="matrix(1, 0, 0, 1, 114.572838, 0)">
      <image id="icon_container" style="display: none;" x="0" y="0" xlink:href=""/>
      <g id="slogan" style="font-style:normal;font-weight:400;font-size:32px;line-height:1;font-family:Montserrat;font-variant-ligatures:none;text-align:center;text-anchor:middle" transform="translate(0 0)">
        <path id="path209344" style="font-style:normal;font-weight:400;font-size:32px;line-height:1;font-family:Montserrat;font-variant-ligatures:none;text-align:center;text-anchor:middle" d="M 298.638,-16.928 V 0 h -3.008 v -3.584 q -1.664,3.616 -6.272,3.68 -2.944,0 -4.608,-1.728 -1.664,-1.76 -1.664,-4.832 v -10.464 h 3.008 v 9.664 q 0,2.144 1.152,3.36 1.184,1.184 3.232,1.184 2.368,-0.032 3.744,-1.664 1.408,-1.664 1.408,-4.224 v -8.32 z" stroke-width="0" stroke-linejoin="miter" stroke-miterlimit="2" fill="#66023c" stroke="#66023c" transform="translate(-2.2737367544323206e-13 386.83208) translate(283.1052500000002 57.008) scale(1) translate(-283.086 16.928)"/>
        <path id="path209346" style="font-style:normal;font-weight:400;font-size:32px;line-height:1;font-family:Montserrat;font-variant-ligatures:none;text-align:center;text-anchor:middle" d="m 304.572,-23.744 h 2.976 V 0 h -2.976 z" stroke-width="0" stroke-linejoin="miter" stroke-miterlimit="2" fill="#66023c" stroke="#66023c" transform="translate(-2.2737367544323206e-13 386.83208) translate(304.5912500000002 50.192) scale(1) translate(-304.572 23.744)"/>
        <path id="path209348" style="font-style:normal;font-weight:400;font-size:32px;line-height:1;font-family:Montserrat;font-variant-ligatures:none;text-align:center;text-anchor:middle" d="m 322.625,-1.12 q -1.952,1.248 -3.968,1.248 -2.016,0 -3.264,-1.184 -1.248,-1.216 -1.248,-3.648 v -9.376 h -2.4 v -2.272 h 2.4 v -4.544 h 3.008 v 4.544 h 5.184 v 2.272 h -5.184 v 8.832 q 0,1.408 0.512,2.016 0.512,0.608 1.536,0.608 1.216,0 2.624,-0.8 z" stroke-width="0" stroke-linejoin="miter" stroke-miterlimit="2" fill="#66023c" stroke="#66023c" transform="translate(-2.2737367544323206e-13 386.83208) translate(311.7642500000002 53.04) scale(1) translate(-311.745 20.896)"/>
        <path id="path209350" style="font-style:normal;font-weight:400;font-size:32px;line-height:1;font-family:Montserrat;font-variant-ligatures:none;text-align:center;text-anchor:middle" d="m 329.2005,-13.28 q 0.832,-1.824 2.368,-2.752 1.536,-0.96 3.648,-0.992 v 2.88 q -2.592,-0.096 -4.192,1.344 -1.6,1.44 -1.824,3.872 V 0 h -2.976 v -16.928 h 2.976 z" stroke-width="0" stroke-linejoin="miter" stroke-miterlimit="2" fill="#66023c" stroke="#66023c" transform="translate(-2.2737367544323206e-13 386.83208) translate(326.24375000000015 56.912) scale(1) translate(-326.2245 17.024)"/>
        <path id="path209352" style="font-style:normal;font-weight:400;font-size:32px;line-height:1;font-family:Montserrat;font-variant-ligatures:none;text-align:center;text-anchor:middle" d="m 348.0605,0 v -2.368 q -1.888,2.496 -5.92,2.496 -1.76,0 -3.104,-0.672 -1.312,-0.672 -2.048,-1.856 -0.704,-1.184 -0.704,-2.656 0,-2.272 1.664,-3.584 1.696,-1.344 4.704,-1.376 h 5.376 v -0.8 q 0,-1.792 -1.12,-2.752 -1.088,-0.992 -3.2,-0.992 -2.56,0 -5.216,1.824 l -1.248,-2.048 q 1.824,-1.184 3.36,-1.696 1.568,-0.544 3.712,-0.544 3.168,0 4.896,1.568 1.728,1.536 1.76,4.32 L 351.0045,0 Z m -5.312,-2.336 q 2.08,0 3.52,-0.992 1.472,-1.024 1.76,-2.688 v -1.696 h -4.96 q -2.016,0 -3.008,0.608 -0.96,0.608 -0.96,1.92 0,1.312 0.992,2.08 0.992,0.768 2.656,0.768 z" stroke-width="0" stroke-linejoin="miter" stroke-miterlimit="2" fill="#66023c" stroke="#66023c" transform="translate(-2.2737367544323206e-13 386.83208) translate(336.30375000000015 56.912) scale(1) translate(-336.2845 17.024)"/>
        <path id="path209354" style="font-style:normal;font-weight:400;font-size:32px;line-height:1;font-family:Montserrat;font-variant-ligatures:none;text-align:center;text-anchor:middle" d="m 370.902,-21.28 q -1.152,0 -1.92,0.704 -0.768,0.704 -0.768,2.016 v 2.208 h 4.672 v 2.272 h -4.672 V 0 h -2.976 v -14.08 h -2.208 v -2.272 h 2.208 v -1.824 q 0,-1.856 0.768,-3.136 0.8,-1.312 2.08,-1.952 1.28,-0.672 2.752,-0.672 1.408,0 2.944,0.768 l -0.704,2.432 q -1.152,-0.544 -2.176,-0.544 z" stroke-width="0" stroke-linejoin="miter" stroke-miterlimit="2" fill="#66023c" stroke="#66023c" transform="translate(-2.2737367544323206e-13 386.83208) translate(363.04925000000014 50) scale(1) translate(-363.03 23.936)"/>
        <path id="path209356" style="font-style:normal;font-weight:400;font-size:32px;line-height:1;font-family:Montserrat;font-variant-ligatures:none;text-align:center;text-anchor:middle" d="m 384.873,0 v -2.368 q -1.888,2.496 -5.92,2.496 -1.76,0 -3.104,-0.672 -1.312,-0.672 -2.048,-1.856 -0.704,-1.184 -0.704,-2.656 0,-2.272 1.664,-3.584 1.696,-1.344 4.704,-1.376 h 5.376 v -0.8 q 0,-1.792 -1.12,-2.752 -1.088,-0.992 -3.2,-0.992 -2.56,0 -5.216,1.824 l -1.248,-2.048 q 1.824,-1.184 3.36,-1.696 1.568,-0.544 3.712,-0.544 3.168,0 4.896,1.568 1.728,1.536 1.76,4.32 L 387.817,0 Z m -5.312,-2.336 q 2.08,0 3.52,-0.992 1.472,-1.024 1.76,-2.688 v -1.696 h -4.96 q -2.016,0 -3.008,0.608 -0.96,0.608 -0.96,1.92 0,1.312 0.992,2.08 0.992,0.768 2.656,0.768 z" stroke-width="0" stroke-linejoin="miter" stroke-miterlimit="2" fill="#66023c" stroke="#66023c" transform="translate(-2.2737367544323206e-13 386.83208) translate(373.11625000000015 56.912) scale(1) translate(-373.097 17.024)"/>
        <path id="path209358" style="font-style:normal;font-weight:400;font-size:32px;line-height:1;font-family:Montserrat;font-variant-ligatures:none;text-align:center;text-anchor:middle" d="m 402.3475,-13.184 q -1.056,-0.64 -2.336,-1.024 -1.248,-0.384 -2.4,-0.384 -1.344,0 -2.176,0.512 -0.8,0.48 -0.8,1.504 0,1.024 0.896,1.568 0.928,0.512 2.784,1.056 1.76,0.512 2.88,1.024 1.12,0.512 1.888,1.504 0.8,0.992 0.8,2.624 0,2.4 -1.824,3.648 -1.792,1.248 -4.48,1.248 -1.888,0 -3.68,-0.608 -1.76,-0.608 -2.976,-1.728 l 1.12,-2.176 q 1.056,0.96 2.592,1.536 1.568,0.576 3.04,0.576 1.472,0 2.368,-0.544 0.896,-0.544 0.896,-1.664 0,-1.152 -0.96,-1.728 -0.928,-0.576 -2.848,-1.152 -1.696,-0.48 -2.784,-0.96 -1.056,-0.512 -1.824,-1.472 -0.736,-0.96 -0.736,-2.496 0,-2.368 1.728,-3.552 1.728,-1.184 4.32,-1.184 1.536,0 3.008,0.448 1.504,0.416 2.592,1.152 z" stroke-width="0" stroke-linejoin="miter" stroke-miterlimit="2" fill="#66023c" stroke="#66023c" transform="translate(-2.2737367544323206e-13 386.83208) translate(390.94275000000016 56.88) scale(1) translate(-390.9235 17.056)"/>
        <path id="path209360" style="font-style:normal;font-weight:400;font-size:32px;line-height:1;font-family:Montserrat;font-variant-ligatures:none;text-align:center;text-anchor:middle" d="m 416.9375,-1.12 q -1.952,1.248 -3.968,1.248 -2.016,0 -3.264,-1.184 -1.248,-1.216 -1.248,-3.648 v -9.376 h -2.4 v -2.272 h 2.4 v -4.544 h 3.008 v 4.544 h 5.184 v 2.272 h -5.184 v 8.832 q 0,1.408 0.512,2.016 0.512,0.608 1.536,0.608 1.216,0 2.624,-0.8 z" stroke-width="0" stroke-linejoin="miter" stroke-miterlimit="2" fill="#66023c" stroke="#66023c" transform="translate(-2.2737367544323206e-13 386.83208) translate(406.0767500000002 53.04) scale(1) translate(-406.0575 20.896)"/>
        <path id="path209362" style="font-style:normal;font-weight:400;font-size:32px;line-height:1;font-family:Montserrat;font-variant-ligatures:none;text-align:center;text-anchor:middle" d="m 438.16,-13.184 q -1.056,-0.64 -2.336,-1.024 -1.248,-0.384 -2.4,-0.384 -1.344,0 -2.176,0.512 -0.8,0.48 -0.8,1.504 0,1.024 0.896,1.568 0.928,0.512 2.784,1.056 1.76,0.512 2.88,1.024 1.12,0.512 1.888,1.504 0.8,0.992 0.8,2.624 0,2.4 -1.824,3.648 -1.792,1.248 -4.48,1.248 -1.888,0 -3.68,-0.608 -1.76,-0.608 -2.976,-1.728 l 1.12,-2.176 q 1.056,0.96 2.592,1.536 1.568,0.576 3.04,0.576 1.472,0 2.368,-0.544 0.896,-0.544 0.896,-1.664 0,-1.152 -0.96,-1.728 -0.928,-0.576 -2.848,-1.152 -1.696,-0.48 -2.784,-0.96 -1.056,-0.512 -1.824,-1.472 -0.736,-0.96 -0.736,-2.496 0,-2.368 1.728,-3.552 1.728,-1.184 4.32,-1.184 1.536,0 3.008,0.448 1.504,0.416 2.592,1.152 z" stroke-width="0" stroke-linejoin="miter" stroke-miterlimit="2" fill="#66023c" stroke="#66023c" transform="translate(-2.2737367544323206e-13 386.83208) translate(426.75525000000016 56.88) scale(1) translate(-426.736 17.056)"/>
        <path id="path209364" style="font-style:normal;font-weight:400;font-size:32px;line-height:1;font-family:Montserrat;font-variant-ligatures:none;text-align:center;text-anchor:middle" d="m 452.75,-1.12 q -1.952,1.248 -3.968,1.248 -2.016,0 -3.264,-1.184 -1.248,-1.216 -1.248,-3.648 v -9.376 h -2.4 v -2.272 h 2.4 v -4.544 h 3.008 v 4.544 h 5.184 v 2.272 h -5.184 v 8.832 q 0,1.408 0.512,2.016 0.512,0.608 1.536,0.608 1.216,0 2.624,-0.8 z" stroke-width="0" stroke-linejoin="miter" stroke-miterlimit="2" fill="#66023c" stroke="#66023c" transform="translate(-2.2737367544323206e-13 386.83208) translate(441.8892500000002 53.04) scale(1) translate(-441.87 20.896)"/>
        <path id="path209366" style="font-style:normal;font-weight:400;font-size:32px;line-height:1;font-family:Montserrat;font-variant-ligatures:none;text-align:center;text-anchor:middle" d="m 466.6855,0 v -2.368 q -1.888,2.496 -5.92,2.496 -1.76,0 -3.104,-0.672 -1.312,-0.672 -2.048,-1.856 -0.704,-1.184 -0.704,-2.656 0,-2.272 1.664,-3.584 1.696,-1.344 4.704,-1.376 h 5.376 v -0.8 q 0,-1.792 -1.12,-2.752 -1.088,-0.992 -3.2,-0.992 -2.56,0 -5.216,1.824 l -1.248,-2.048 q 1.824,-1.184 3.36,-1.696 1.568,-0.544 3.712,-0.544 3.168,0 4.896,1.568 1.728,1.536 1.76,4.32 L 469.6295,0 Z m -5.312,-2.336 q 2.08,0 3.52,-0.992 1.472,-1.024 1.76,-2.688 v -1.696 h -4.96 q -2.016,0 -3.008,0.608 -0.96,0.608 -0.96,1.92 0,1.312 0.992,2.08 0.992,0.768 2.656,0.768 z" stroke-width="0" stroke-linejoin="miter" stroke-miterlimit="2" fill="#66023c" stroke="#66023c" transform="translate(-2.2737367544323206e-13 386.83208) translate(454.92875000000015 56.912) scale(1) translate(-454.9095 17.024)"/>
        <path id="path209368" style="font-style:normal;font-weight:400;font-size:32px;line-height:1;font-family:Montserrat;font-variant-ligatures:none;text-align:center;text-anchor:middle" d="m 484,-1.12 q -1.952,1.248 -3.968,1.248 -2.016,0 -3.264,-1.184 -1.248,-1.216 -1.248,-3.648 v -9.376 h -2.4 v -2.272 h 2.4 v -4.544 h 3.008 v 4.544 h 5.184 v 2.272 h -5.184 v 8.832 q 0,1.408 0.512,2.016 0.512,0.608 1.536,0.608 1.216,0 2.624,-0.8 z" stroke-width="0" stroke-linejoin="miter" stroke-miterlimit="2" fill="#66023c" stroke="#66023c" transform="translate(-2.2737367544323206e-13 386.83208) translate(473.1392500000002 53.04) scale(1) translate(-473.12 20.896)"/>
        <path id="path209370" style="font-style:normal;font-weight:400;font-size:32px;line-height:1;font-family:Montserrat;font-variant-ligatures:none;text-align:center;text-anchor:middle" d="m 494.1335,-17.024 q 3.936,0 5.952,2.336 2.016,2.304 2.016,6.432 0,0.64 -0.032,0.96 h -13.376 q 0.352,2.272 1.888,3.616 1.568,1.344 3.84,1.344 1.504,0 2.784,-0.544 1.312,-0.544 2.272,-1.536 l 1.632,1.696 q -1.248,1.344 -3.008,2.08 -1.76,0.736 -3.904,0.736 -2.496,0 -4.448,-1.056 -1.92,-1.088 -3.008,-3.04 -1.056,-1.952 -1.056,-4.448 0,-2.496 1.056,-4.416 1.088,-1.952 3.008,-3.04 1.92,-1.12 4.384,-1.12 z m 5.28,7.424 q -0.128,-2.304 -1.536,-3.616 -1.408,-1.344 -3.712,-1.344 -2.24,0 -3.744,1.344 -1.472,1.344 -1.76,3.616 z" stroke-width="0" stroke-linejoin="miter" stroke-miterlimit="2" fill="#66023c" stroke="#66023c" transform="translate(-2.2737367544323206e-13 386.83208) translate(485.70475000000016 56.912) scale(1) translate(-485.6855 17.024)"/>
        <path id="path209372" style="font-style:normal;font-weight:400;font-size:32px;line-height:1;font-family:Montserrat;font-variant-ligatures:none;text-align:center;text-anchor:middle" d="m 506.322,-23.744 h 2.976 V 0 h -2.976 z" stroke-width="0" stroke-linejoin="miter" stroke-miterlimit="2" fill="#66023c" stroke="#66023c" transform="translate(-2.2737367544323206e-13 386.83208) translate(506.3412500000002 50.192) scale(1) translate(-506.322 23.744)"/>
        <path id="path209374" style="font-style:normal;font-weight:400;font-size:32px;line-height:1;font-family:Montserrat;font-variant-ligatures:none;text-align:center;text-anchor:middle" d="m 522.071,-17.024 q 3.936,0 5.952,2.336 2.016,2.304 2.016,6.432 0,0.64 -0.032,0.96 h -13.376 q 0.352,2.272 1.888,3.616 1.568,1.344 3.84,1.344 1.504,0 2.784,-0.544 1.312,-0.544 2.272,-1.536 l 1.632,1.696 q -1.248,1.344 -3.008,2.08 -1.76,0.736 -3.904,0.736 -2.496,0 -4.448,-1.056 -1.92,-1.088 -3.008,-3.04 -1.056,-1.952 -1.056,-4.448 0,-2.496 1.056,-4.416 1.088,-1.952 3.008,-3.04 1.92,-1.12 4.384,-1.12 z m 5.28,7.424 q -0.128,-2.304 -1.536,-3.616 -1.408,-1.344 -3.712,-1.344 -2.24,0 -3.744,1.344 -1.472,1.344 -1.76,3.616 z" stroke-width="0" stroke-linejoin="miter" stroke-miterlimit="2" fill="#66023c" stroke="#66023c" transform="translate(-2.2737367544323206e-13 386.83208) translate(513.6422500000002 56.912) scale(1) translate(-513.623 17.024)"/>
        <path id="path209376" style="font-style:normal;font-weight:400;font-size:32px;line-height:1;font-family:Montserrat;font-variant-ligatures:none;text-align:center;text-anchor:middle" d="m 543.3475,-13.184 q -1.056,-0.64 -2.336,-1.024 -1.248,-0.384 -2.4,-0.384 -1.344,0 -2.176,0.512 -0.8,0.48 -0.8,1.504 0,1.024 0.896,1.568 0.928,0.512 2.784,1.056 1.76,0.512 2.88,1.024 1.12,0.512 1.888,1.504 0.8,0.992 0.8,2.624 0,2.4 -1.824,3.648 -1.792,1.248 -4.48,1.248 -1.888,0 -3.68,-0.608 -1.76,-0.608 -2.976,-1.728 l 1.12,-2.176 q 1.056,0.96 2.592,1.536 1.568,0.576 3.04,0.576 1.472,0 2.368,-0.544 0.896,-0.544 0.896,-1.664 0,-1.152 -0.96,-1.728 -0.928,-0.576 -2.848,-1.152 -1.696,-0.48 -2.784,-0.96 -1.056,-0.512 -1.824,-1.472 -0.736,-0.96 -0.736,-2.496 0,-2.368 1.728,-3.552 1.728,-1.184 4.32,-1.184 1.536,0 3.008,0.448 1.504,0.416 2.592,1.152 z" stroke-width="0" stroke-linejoin="miter" stroke-miterlimit="2" fill="#66023c" stroke="#66023c" transform="translate(-2.2737367544323206e-13 386.83208) translate(531.9427500000002 56.88) scale(1) translate(-531.9235 17.056)"/>
        <path id="path209378" style="font-style:normal;font-weight:400;font-size:32px;line-height:1;font-family:Montserrat;font-variant-ligatures:none;text-align:center;text-anchor:middle" d="m 558.0975,-13.184 q -1.056,-0.64 -2.336,-1.024 -1.248,-0.384 -2.4,-0.384 -1.344,0 -2.176,0.512 -0.8,0.48 -0.8,1.504 0,1.024 0.896,1.568 0.928,0.512 2.784,1.056 1.76,0.512 2.88,1.024 1.12,0.512 1.888,1.504 0.8,0.992 0.8,2.624 0,2.4 -1.824,3.648 -1.792,1.248 -4.48,1.248 -1.888,0 -3.68,-0.608 -1.76,-0.608 -2.976,-1.728 l 1.12,-2.176 q 1.056,0.96 2.592,1.536 1.568,0.576 3.04,0.576 1.472,0 2.368,-0.544 0.896,-0.544 0.896,-1.664 0,-1.152 -0.96,-1.728 -0.928,-0.576 -2.848,-1.152 -1.696,-0.48 -2.784,-0.96 -1.056,-0.512 -1.824,-1.472 -0.736,-0.96 -0.736,-2.496 0,-2.368 1.728,-3.552 1.728,-1.184 4.32,-1.184 1.536,0 3.008,0.448 1.504,0.416 2.592,1.152 z" stroke-width="0" stroke-linejoin="miter" stroke-miterlimit="2" fill="#66023c" stroke="#66023c" transform="translate(-2.2737367544323206e-13 386.83208) translate(546.6927500000002 56.88) scale(1) translate(-546.6735 17.056)"/>
        <path id="path209380" style="font-style:normal;font-weight:400;font-size:32px;line-height:1;font-family:Montserrat;font-variant-ligatures:none;text-align:center;text-anchor:middle" d="m 581.3825,-17.024 q 2.368,0 4.224,1.088 1.856,1.088 2.88,3.04 1.024,1.952 1.024,4.48 0,2.496 -1.024,4.448 -0.992,1.92 -2.848,3.008 -1.824,1.056 -4.192,1.056 -2.144,0 -3.776,-0.896 -1.632,-0.896 -2.56,-2.56 V 0 h -2.976 v -23.744 h 2.976 v 10.176 q 0.928,-1.664 2.528,-2.56 1.632,-0.896 3.744,-0.896 z m -0.576,14.528 q 1.632,0 2.912,-0.768 1.312,-0.768 2.016,-2.144 0.736,-1.376 0.736,-3.104 0,-1.696 -0.736,-3.072 -0.736,-1.376 -2.016,-2.144 -1.28,-0.768 -2.912,-0.768 -1.632,0 -2.944,0.768 -1.28,0.768 -2.016,2.144 -0.736,1.376 -0.736,3.072 0,1.76 0.736,3.136 0.736,1.344 2.016,2.112 1.312,0.768 2.944,0.768 z" stroke-width="0" stroke-linejoin="miter" stroke-miterlimit="2" fill="#66023c" stroke="#66023c" transform="translate(-2.2737367544323206e-13 386.83208) translate(572.1537500000002 50.192) scale(1) translate(-572.1345 23.744)"/>
        <path id="path209382" style="font-style:normal;font-weight:400;font-size:32px;line-height:1;font-family:Montserrat;font-variant-ligatures:none;text-align:center;text-anchor:middle" d="m 593.822,-23.744 h 2.976 V 0 h -2.976 z" stroke-width="0" stroke-linejoin="miter" stroke-miterlimit="2" fill="#66023c" stroke="#66023c" transform="translate(-2.2737367544323206e-13 386.83208) translate(593.8412500000002 50.192) scale(1) translate(-593.822 23.744)"/>
        <path id="path209384" style="font-style:normal;font-weight:400;font-size:32px;line-height:1;font-family:Montserrat;font-variant-ligatures:none;text-align:center;text-anchor:middle" d="m 609.827,-17.024 q 2.528,0 4.48,1.088 1.984,1.088 3.072,3.04 1.12,1.92 1.12,4.416 0,2.496 -1.12,4.448 -1.088,1.952 -3.072,3.04 -1.952,1.088 -4.48,1.088 -2.56,0 -4.544,-1.088 -1.952,-1.088 -3.072,-3.008 -1.088,-1.952 -1.088,-4.48 0,-2.496 1.088,-4.416 1.12,-1.952 3.072,-3.04 1.984,-1.088 4.544,-1.088 z m 0,2.592 q -1.664,0 -2.976,0.768 -1.28,0.768 -2.016,2.144 -0.704,1.344 -0.704,3.072 0,1.76 0.704,3.136 0.736,1.376 2.016,2.144 1.312,0.736 2.976,0.736 1.632,0 2.912,-0.736 1.312,-0.768 2.016,-2.144 0.736,-1.376 0.736,-3.136 0,-1.728 -0.736,-3.072 -0.704,-1.376 -2.016,-2.144 -1.28,-0.768 -2.912,-0.768 z" stroke-width="0" stroke-linejoin="miter" stroke-miterlimit="2" fill="#66023c" stroke="#66023c" transform="translate(-2.2737367544323206e-13 386.83208) translate(601.1422500000002 56.912) scale(1) translate(-601.123 17.024)"/>
        <path id="path209386" style="font-style:normal;font-weight:400;font-size:32px;line-height:1;font-family:Montserrat;font-variant-ligatures:none;text-align:center;text-anchor:middle" d="m 634.534,-12.416 q -2.016,-1.952 -4.832,-1.952 -1.664,0 -2.976,0.736 -1.28,0.736 -2.016,2.08 -0.736,1.344 -0.736,3.104 0,1.76 0.704,3.104 0.736,1.344 1.984,2.112 1.28,0.736 2.912,0.736 1.632,0 2.944,-0.544 1.312,-0.544 2.176,-1.568 l 1.696,1.728 q -1.152,1.44 -2.944,2.208 -1.76,0.768 -4,0.768 -2.464,0 -4.384,-1.088 -1.92,-1.088 -3.008,-3.008 -1.056,-1.952 -1.056,-4.448 0,-2.496 1.056,-4.448 1.088,-1.952 3.008,-3.04 1.92,-1.088 4.384,-1.088 2.144,0 3.84,0.672 1.728,0.64 2.88,1.888 z" stroke-width="0" stroke-linejoin="miter" stroke-miterlimit="2" fill="#66023c" stroke="#66023c" transform="translate(-2.2737367544323206e-13 386.83208) translate(621.0172500000002 56.912) scale(1) translate(-620.998 17.024)"/>
        <path id="path209388" style="font-style:normal;font-weight:400;font-size:32px;line-height:1;font-family:Montserrat;font-variant-ligatures:none;text-align:center;text-anchor:middle" d="m 652.502,0 -5.408,-8.224 -3.296,3.424 V 0 h -2.976 v -23.744 h 2.976 v 15.136 l 8.192,-8.32 h 3.488 l -6.304,6.56 L 656.086,0 Z" stroke-width="0" stroke-linejoin="miter" stroke-miterlimit="2" fill="#66023c" stroke="#66023c" transform="translate(-2.2737367544323206e-13 386.83208) translate(640.8412500000002 50.192) scale(1) translate(-640.822 23.744)"/>
        <path id="path209390" style="font-style:normal;font-weight:400;font-size:32px;line-height:1;font-family:Montserrat;font-variant-ligatures:none;text-align:center;text-anchor:middle" d="m 670.409,-12.416 q -2.016,-1.952 -4.832,-1.952 -1.664,0 -2.976,0.736 -1.28,0.736 -2.016,2.08 -0.736,1.344 -0.736,3.104 0,1.76 0.704,3.104 0.736,1.344 1.984,2.112 1.28,0.736 2.912,0.736 1.632,0 2.944,-0.544 1.312,-0.544 2.176,-1.568 l 1.696,1.728 q -1.152,1.44 -2.944,2.208 -1.76,0.768 -4,0.768 -2.464,0 -4.384,-1.088 -1.92,-1.088 -3.008,-3.008 -1.056,-1.952 -1.056,-4.448 0,-2.496 1.056,-4.448 1.088,-1.952 3.008,-3.04 1.92,-1.088 4.384,-1.088 2.144,0 3.84,0.672 1.728,0.64 2.88,1.888 z" stroke-width="0" stroke-linejoin="miter" stroke-miterlimit="2" fill="#66023c" stroke="#66023c" transform="translate(-2.2737367544323206e-13 386.83208) translate(656.8922500000002 56.912) scale(1) translate(-656.873 17.024)"/>
        <path id="path209392" style="font-style:normal;font-weight:400;font-size:32px;line-height:1;font-family:Montserrat;font-variant-ligatures:none;text-align:center;text-anchor:middle" d="m 686.137,-17.024 q 2.976,0 4.672,1.76 1.696,1.728 1.696,4.8 V 0 h -2.976 v -9.664 q 0,-2.144 -1.216,-3.328 -1.184,-1.216 -3.296,-1.216 -2.464,0.032 -3.904,1.664 -1.44,1.632 -1.44,4.224 V 0 h -2.976 v -23.744 h 2.976 v 10.464 q 1.696,-3.68 6.464,-3.744 z" stroke-width="0" stroke-linejoin="miter" stroke-miterlimit="2" fill="#66023c" stroke="#66023c" transform="translate(-2.2737367544323206e-13 386.83208) translate(676.7162500000002 50.192) scale(1) translate(-676.697 23.744)"/>
        <path id="path209394" style="font-style:normal;font-weight:400;font-size:32px;line-height:1;font-family:Montserrat;font-variant-ligatures:none;text-align:center;text-anchor:middle" d="m 708.123,0 v -2.368 q -1.888,2.496 -5.92,2.496 -1.76,0 -3.104,-0.672 -1.312,-0.672 -2.048,-1.856 -0.704,-1.184 -0.704,-2.656 0,-2.272 1.664,-3.584 1.696,-1.344 4.704,-1.376 h 5.376 v -0.8 q 0,-1.792 -1.12,-2.752 -1.088,-0.992 -3.2,-0.992 -2.56,0 -5.216,1.824 l -1.248,-2.048 q 1.824,-1.184 3.36,-1.696 1.568,-0.544 3.712,-0.544 3.168,0 4.896,1.568 1.728,1.536 1.76,4.32 L 711.067,0 Z m -5.312,-2.336 q 2.08,0 3.52,-0.992 1.472,-1.024 1.76,-2.688 v -1.696 h -4.96 q -2.016,0 -3.008,0.608 -0.96,0.608 -0.96,1.92 0,1.312 0.992,2.08 0.992,0.768 2.656,0.768 z" stroke-width="0" stroke-linejoin="miter" stroke-miterlimit="2" fill="#66023c" stroke="#66023c" transform="translate(-2.2737367544323206e-13 386.83208) translate(696.3662500000002 56.912) scale(1) translate(-696.347 17.024)"/>
        <path id="path209396" style="font-style:normal;font-weight:400;font-size:32px;line-height:1;font-family:Montserrat;font-variant-ligatures:none;text-align:center;text-anchor:middle" d="m 716.3495,-16.928 h 2.976 V 0 h -2.976 z m 1.472,-6.752 q 0.8,0 1.312,0.544 0.544,0.544 0.544,1.376 0,0.832 -0.544,1.376 -0.512,0.544 -1.312,0.544 -0.8,0 -1.344,-0.544 -0.512,-0.544 -0.512,-1.376 0,-0.832 0.512,-1.376 0.544,-0.544 1.344,-0.544 z" stroke-width="0" stroke-linejoin="miter" stroke-miterlimit="2" fill="#66023c" stroke="#66023c" transform="translate(-2.2737367544323206e-13 386.83208) translate(715.9847500000002 50.256) scale(1) translate(-715.9655 23.68)"/>
        <path id="path209398" style="font-style:normal;font-weight:400;font-size:32px;line-height:1;font-family:Montserrat;font-variant-ligatures:none;text-align:center;text-anchor:middle" d="m 734.5075,-17.024 q 2.976,0 4.672,1.76 1.696,1.728 1.696,4.8 V 0 h -2.976 v -9.664 q 0,-2.144 -1.216,-3.328 -1.184,-1.216 -3.296,-1.216 -2.272,0.032 -3.712,1.472 -1.408,1.408 -1.6,3.68 V 0 h -2.976 v -16.928 h 2.976 v 3.584 q 1.696,-3.616 6.432,-3.68 z" stroke-width="0" stroke-linejoin="miter" stroke-miterlimit="2" fill="#66023c" stroke="#66023c" transform="translate(-2.2737367544323206e-13 386.83208) translate(725.1187500000002 56.912) scale(1) translate(-725.0995 17.024)"/>
      </g>
      <g id="title" style="font-style:normal;font-weight:700;font-size:72px;line-height:1;font-family:'Comfortaa Bold Alt2';font-variant-ligatures:none;text-align:center;text-anchor:middle" transform="translate(0 0)">
        <path id="path209401" style="font-style:normal;font-weight:700;font-size:72px;line-height:1;font-family:'Comfortaa Bold Alt2';font-variant-ligatures:none;text-align:center;text-anchor:middle" d="m 434.57244,-55.152 c -0.72,-0.72 -1.656,-1.08 -2.664,-1.08 -1.44,0 -2.592,0.72 -3.312,2.016 l -20.808,42.84 -21.384,-42.84 c -0.792,-1.296 -1.872,-2.016 -3.312,-2.016 -1.08,0 -1.944,0.36 -2.664,1.08 -0.72,0.72 -1.08,1.656 -1.08,2.664 v 48.744 c 0,1.08 0.36,1.944 1.08,2.664 0.72,0.72 1.584,1.08 2.664,1.08 1.008,0 1.944,-0.36 2.664,-1.08 0.72,-0.72 1.08,-1.584 1.08,-2.664 V -38.88 l 17.208,34.488 c 0.72,1.512 1.872,2.232 3.456,2.232 1.296,0 2.376,-0.576 3.24,-1.872 l 17.424,-35.496 v 35.784 c 0,1.08 0.36,1.944 1.08,2.664 0.72,0.72 1.584,1.08 2.664,1.08 1.008,0 1.872,-0.36 2.592,-1.08 0.72,-0.72 1.152,-1.584 1.152,-2.664 v -48.744 c 0,-1.008 -0.36,-1.944 -1.08,-2.664 z" stroke-width="0" stroke-linejoin="miter" stroke-miterlimit="2" fill="#66023c" stroke="#66023c" transform="translate(0 309.962) translate(251.98677609999993 -2.858080000000001) scale(1.94) translate(-379.34844 56.232)"/>
        <path id="path209403" style="font-style:normal;font-weight:700;font-size:72px;line-height:1;font-family:'Comfortaa Bold Alt2';font-variant-ligatures:none;text-align:center;text-anchor:middle" d="m 481.83481,-39.528 c -1.008,0 -1.872,0.36 -2.592,1.08 -0.72,0.72 -1.008,1.512 -1.008,2.52 V -18 c 0,3.096 -1.152,5.76 -3.312,7.92 -2.232,2.232 -4.824,3.312 -7.92,3.312 -3.096,0 -5.688,-1.08 -7.92,-3.312 -2.16,-2.16 -3.24,-4.824 -3.24,-7.92 v -17.928 c 0,-1.008 -0.36,-1.8 -1.08,-2.52 -0.72,-0.72 -1.512,-1.08 -2.52,-1.08 -1.008,0 -1.872,0.36 -2.592,1.08 -0.72,0.72 -1.008,1.512 -1.008,2.52 V -18 c 0,5.112 1.728,9.432 5.328,13.032 3.6,3.6 7.92,5.4 13.032,5.4 5.04,0 9.432,-1.8 13.032,-5.4 3.6,-3.6 5.4,-7.92 5.4,-13.032 v -17.928 c 0,-1.008 -0.36,-1.8 -1.08,-2.52 -0.72,-0.72 -1.512,-1.08 -2.52,-1.08 z" stroke-width="0" stroke-linejoin="miter" stroke-miterlimit="2" fill="#66023c" stroke="#66023c" transform="translate(0 309.962) translate(386.4178539 29.54768) scale(1.94) translate(-448.64281 39.528)"/>
        <path id="path209405" style="font-style:normal;font-weight:700;font-size:72px;line-height:1;font-family:'Comfortaa Bold Alt2';font-variant-ligatures:none;text-align:center;text-anchor:middle" d="m 520.40094,-40.464 c -6.048,0 -11.16,2.16 -15.48,6.408 -4.248,4.248 -6.336,9.36 -6.336,15.408 v 15.192 c 0,1.008 0.288,1.8 1.008,2.448 0.648,0.72 1.44,1.008 2.448,1.008 0.936,0 1.728,-0.288 2.376,-1.008 0.72,-0.648 1.08,-1.44 1.08,-2.448 v -15.192 c 0,-4.104 1.44,-7.632 4.32,-10.512 2.952,-2.952 6.48,-4.392 10.584,-4.392 0.936,0 1.728,-0.36 2.448,-1.008 0.648,-0.72 1.008,-1.512 1.008,-2.448 0,-0.936 -0.36,-1.8 -1.008,-2.448 -0.72,-0.648 -1.512,-1.008 -2.448,-1.008 z" stroke-width="0" stroke-linejoin="miter" stroke-miterlimit="2" fill="#66023c" stroke="#66023c" transform="translate(0 309.962) translate(483.30558610000014 27.731840000000005) scale(1.94) translate(-498.58494 40.464)"/>
        <path id="path209407" style="font-style:normal;font-weight:700;font-size:72px;line-height:1;font-family:'Comfortaa Bold Alt2';font-variant-ligatures:none;text-align:center;text-anchor:middle" d="m 547.56406,0.288 c 4.752,0 8.928,-1.44 12.6,-4.464 0.792,-0.576 1.152,-1.368 1.296,-2.304 0.072,-1.008 -0.144,-1.8 -0.792,-2.592 -0.576,-0.72 -1.368,-1.152 -2.304,-1.224 -0.936,-0.072 -1.8,0.144 -2.52,0.792 -2.448,1.944 -5.184,2.88 -8.28,2.88 -3.6,0 -6.696,-1.224 -9.216,-3.816 -2.592,-2.52 -3.816,-5.616 -3.816,-9.216 0,-3.6 1.224,-6.696 3.816,-9.288 2.52,-2.52 5.616,-3.816 9.216,-3.816 2.952,0 5.616,0.936 7.992,2.736 2.304,1.8 3.816,4.104 4.608,6.912 h -12.6 c -0.936,0 -1.8,0.36 -2.448,1.008 -0.648,0.648 -1.008,1.512 -1.008,2.448 0,0.936 0.36,1.8 1.008,2.448 0.648,0.648 1.512,1.008 2.448,1.008 h 16.56 c 0.936,0 1.728,-0.36 2.376,-1.008 0.72,-0.648 1.08,-1.512 1.08,-2.448 0,-5.544 -2.016,-10.224 -5.904,-14.112 -3.888,-3.888 -8.568,-5.904 -14.112,-5.904 -5.544,0 -10.224,2.016 -14.112,5.904 -3.888,3.888 -5.832,8.568 -5.832,14.112 0,5.544 1.944,10.224 5.832,14.112 3.888,3.888 8.568,5.832 14.112,5.832 z" stroke-width="0" stroke-linejoin="miter" stroke-miterlimit="2" fill="#66023c" stroke="#66023c" transform="translate(0 309.962) translate(539.6337189000001 29.268320000000003) scale(1.94) translate(-527.62006 39.672)"/>
        <path id="path209409" style="font-style:normal;font-weight:700;font-size:72px;line-height:1;font-family:'Comfortaa Bold Alt2';font-variant-ligatures:none;text-align:center;text-anchor:middle" d="m 604.14144,-3.024 c 0,-0.936 -0.36,-1.8 -1.008,-2.52 l -11.448,-13.68 10.872,-14.184 c 0.648,-0.864 1.008,-1.8 1.008,-2.88 0,-0.864 -0.288,-1.584 -0.864,-2.16 -0.576,-0.576 -1.296,-0.936 -2.232,-0.936 -1.152,0 -2.088,0.432 -2.664,1.224 l -10.584,14.112 -11.808,-14.112 c -0.72,-0.792 -1.584,-1.224 -2.736,-1.224 -1.008,0 -1.8,0.288 -2.376,0.864 -0.576,0.576 -0.792,1.296 -0.792,2.088 0,1.008 0.36,1.872 1.08,2.736 l 11.88,14.04 -11.16,13.968 c -0.72,0.864 -1.008,1.728 -1.008,2.664 0,0.864 0.216,1.584 0.792,2.16 0.576,0.576 1.296,0.864 2.304,0.864 1.008,0 1.872,-0.36 2.592,-1.152 l 10.872,-13.68 11.448,13.68 c 0.576,0.792 1.44,1.152 2.592,1.152 0.936,0 1.728,-0.288 2.304,-0.864 0.576,-0.576 0.936,-1.296 0.936,-2.16 z" stroke-width="0" stroke-linejoin="miter" stroke-miterlimit="2" fill="#66023c" stroke="#66023c" transform="translate(0 309.962) translate(620.8991161000002 29.827039999999997) scale(1.94) translate(-569.50944 39.384)"/>
        <path id="path209411" style="font-style:normal;font-weight:700;font-size:72px;line-height:1;font-family:'Comfortaa Bold Alt2';font-variant-ligatures:none;text-align:center;text-anchor:middle" d="m 641.49931,-33.768 c -3.888,-3.888 -8.568,-5.904 -14.112,-5.904 -5.472,0 -10.224,2.016 -14.112,5.904 -3.888,3.888 -5.832,8.568 -5.832,14.112 0,5.544 1.944,10.224 5.832,14.112 3.888,3.888 8.64,5.832 14.112,5.832 4.968,0 9.36,-1.584 13.104,-4.824 v 1.368 c 0,1.008 0.288,1.8 1.008,2.448 0.648,0.72 1.44,1.008 2.448,1.008 0.936,0 1.728,-0.288 2.448,-1.008 0.648,-0.648 1.008,-1.44 1.008,-2.448 v -16.488 c 0,-5.544 -1.944,-10.224 -5.904,-14.112 z m -14.112,27.144 c -3.6,0 -6.696,-1.224 -9.216,-3.816 -2.592,-2.52 -3.816,-5.616 -3.816,-9.216 0,-3.6 1.224,-6.696 3.816,-9.216 2.52,-2.592 5.616,-3.888 9.216,-3.888 3.6,0 6.696,1.296 9.216,3.888 2.592,2.52 3.888,5.616 3.888,9.216 0,3.6 -1.296,6.696 -3.888,9.216 -2.52,2.592 -5.616,3.816 -9.216,3.816 z" stroke-width="0" stroke-linejoin="miter" stroke-miterlimit="2" fill="#66023c" stroke="#66023c" transform="translate(0 309.962) translate(694.4908239000002 29.268320000000003) scale(1.94) translate(-607.44331 39.672)"/>
      </g>
      <image id="icon" style="display: none;" x="0" y="0" xlink:href=""/>
    </g>
  </g>
  <g id="g-1" transform="matrix(0.712982, 0, 0, 0.712982, 137.399994, 288)" style="stroke-linejoin: round;">
    <g id="g-2">
      <path d="M 0 280.512 L 280.512 280.512 L 280.512 0 L 0 0 z " style="fill:none;"/>
    </g>
    <g id="g-3">
      <g id="g-4">
        <path clip-path="url(#p26bd5e0cd7)" d="M 159.300223 110.596379 L 157.817277 108.319247 L 156.126365 106.130708 L 154.23541 104.047442 L 152.154254 102.085955 L 149.893993 100.261587 L 147.465813 98.587789 L 144.882689 97.077544 L 142.157301 95.742002 L 139.304029 94.591695 L 136.337876 93.635798 L 133.273018 92.881837 L 130.123823 92.336314 L 126.906194 92.004838 L 123.636232 91.891695 L 120.328675 91.999956 L 116.999648 92.331608 L 113.665196 92.887392 L 110.339712 93.667232 L 107.038816 94.669791 L 103.776357 95.893213 L 100.567318 97.334261 L 97.426268 98.988672 L 94.367288 100.851199 L 91.402557 102.916678 L 88.543826 105.179465 L 85.804955 107.631076 L 83.19654 110.264463 L 80.729863 113.07085 L 78.415495 116.040802 L 76.262267 119.16583 L 74.279475 122.435593 L 72.475651 125.839246 L 70.85854 129.365505 L 69.43443 133.004525 L 68.210296 136.742606 L 67.190997 140.569411 L 66.380977 144.474579 L 65.784791 148.443694 L 65.405488 152.466142 L 65.245782 156.529267 L 65.307601 160.620356 L 65.59209 164.726684 L 66.099625 168.835569 L 66.830264 172.936545 L 67.782683 177.015012 L 68.955712 181.060781 L 70.347159 185.061713 L 71.955058 189.007965 L 73.775198 192.885745 L 75.803403 196.683666 L 78.036137 200.392638 L 80.468361 204.001819 L 83.094467 207.500719 L 85.908302 210.879232 L 88.9032 214.12766 L 92.072008 217.236738 L 95.409003 220.199251 L 98.904458 223.005111 L 102.552005 225.647889 L 106.340954 228.118641 L 110.264402 230.411774 L 114.313149 232.520699 L 118.477702 234.43935 L 122.74831 236.162197 L 127.117507 237.685063 L 131.572719 239.002471 L 136.106209 240.111104 L 140.704962 241.006815 L 145.361073 241.687152 L 150.061229 242.149315 L 154.797455 242.391713 L 159.559067 242.412848 L 164.335363 242.211764 L 169.11565 241.788041 L 173.889272 241.141795 L 178.645636 240.273666 L 183.377041 239.184101 L 188.07027 237.875213 L 192.717823 236.348193 L 197.306782 234.606408 L 201.829917 232.651751 L 206.274729 230.488795 L 210.634324 228.120089 L 214.89929 225.549733 L 219.060451 222.782254 L 223.106448 219.824458 L 227.031209 216.680056 L 230.826391 213.354759 L 234.483958 209.85464 L 237.99832 206.183799 L 241.359789 202.351095 L 244.561314 198.363597 L 247.596207 194.228664 L 250.459889 189.951206 L 253.144469 185.541649 L 255.644387 181.00812 L 257.955881 176.355986 L 260.072558 171.596602 L 261.991215 166.735568 L 263.707533 161.78156 L 265.216695 156.746655 L 266.516352 151.636701 L 267.60341 146.460786 L 268.475187 141.228101 L 268.612484 140.256 L 268.612484 140.256 " style="fill:none;stroke:#66023c;stroke-linecap:square;stroke-width:3;"/>
      </g>
      <g id="g-5">
        <path clip-path="url(#p26bd5e0cd7)" d="M 105.047903 138.593029 L 103.817322 141.015864 L 102.767448 143.574507 L 101.908764 146.253755 L 101.250644 149.036832 L 100.800826 151.90646 L 100.565364 154.846225 L 100.549015 157.838398 L 100.755097 160.866424 L 101.185537 163.912584 L 101.840783 166.959296 L 102.720263 169.990522 L 103.822423 172.990566 L 105.144171 175.942852 L 106.681167 178.831294 L 108.428703 181.641592 L 110.380436 184.358788 L 112.528984 186.968616 L 114.867087 189.45865 L 117.385777 191.81603 L 120.076521 194.029692 L 122.929025 196.088276 L 125.932312 197.9813 L 129.074797 199.699191 L 132.34592 201.233984 L 135.734917 202.578324 L 139.22751 203.72445 L 142.812297 204.66671 L 146.476038 205.399722 L 150.205276 205.919048 L 153.988244 206.221284 L 157.811337 206.303551 L 161.6609 206.163881 L 165.523285 205.801211 L 169.386824 205.215016 L 173.236164 204.406106 L 177.059923 203.375443 L 180.846908 202.124357 L 184.582356 200.656112 L 188.255549 198.973374 L 191.854172 197.08012 L 195.366249 194.98104 L 198.780189 192.681501 L 202.08482 190.18752 L 205.27105 187.50428 L 208.326897 184.640228 L 211.244121 181.601471 L 214.013306 178.395976 L 216.626911 175.030368 L 219.075097 171.515191 L 221.350091 167.859753 L 223.445788 164.071663 L 225.355318 160.160704 L 227.072402 156.13698 L 228.591362 152.010871 L 229.907134 147.793 L 231.015271 143.494192 L 231.912384 139.123013 L 232.594603 134.692931 L 233.059542 130.212673 L 233.304802 125.695971 L 233.328989 121.151599 L 233.130998 116.590819 L 232.710322 112.024885 L 232.067048 107.465005 L 231.20129 102.919737 L 230.114593 98.402707 L 228.807953 93.922272 L 227.284284 89.49178 L 225.545418 85.119301 L 223.595585 80.817766 L 221.437395 76.594874 L 219.074892 72.460629 L 216.5126 68.424778 L 213.755502 64.496789 L 210.809026 60.685835 L 207.679022 57.000767 L 204.369728 53.448033 L 200.889583 50.038021 L 197.243369 46.776632 L 193.44046 43.67337 L 189.486109 40.733548 L 185.390529 37.965706 L 181.159372 35.374539 L 176.800895 32.966148 L 172.323607 30.746217 L 167.739082 28.721178 L 163.05357 26.894437 L 158.276186 25.270361 L 153.416211 23.852875 L 148.479989 22.644768 L 143.480036 21.650003 L 138.425998 20.87115 L 133.327594 20.310322 L 128.191366 19.969029 L 123.030288 19.848894 L 117.854178 19.950666 L 112.669564 20.27492 L 107.489479 20.821516 L 102.320371 21.590427 L 97.171915 22.581057 L 92.056978 23.791537 L 86.9818 25.220977 L 81.955797 26.867515 L 76.988271 28.728877 L 76.077758 29.096024 L 76.077758 29.096024 " style="fill:none;stroke:#66023c;stroke-linecap:square;stroke-width:3;"/>
      </g>
      <g id="g-6">
        <path clip-path="url(#p26bd5e0cd7)" d="M 156.419873 171.578592 L 159.133401 171.432888 L 161.874188 171.062785 L 164.623826 170.466803 L 167.363102 169.645213 L 170.073181 168.599953 L 172.736823 167.333987 L 175.336295 165.852058 L 177.855602 164.159574 L 180.278434 162.263721 L 182.589341 160.172906 L 184.77472 157.895641 L 186.821754 155.441121 L 188.717635 152.82031 L 190.450601 150.045011 L 192.010622 147.126452 L 193.387917 144.077604 L 194.57382 140.911993 L 195.561201 137.642119 L 196.343407 134.282179 L 196.915123 130.845096 L 197.271657 127.345463 L 197.40942 123.798028 L 197.325915 120.21761 L 197.019523 116.617338 L 196.489257 113.010211 L 195.735535 109.412474 L 194.759163 105.836827 L 193.562099 102.297428 L 192.147229 98.80815 L 190.51749 95.380886 L 188.677188 92.028857 L 186.63145 88.764873 L 184.386175 85.601284 L 181.946747 82.548459 L 179.32154 79.619287 L 176.51708 76.823146 L 173.540115 74.169064 L 170.400853 71.668194 L 167.106963 69.328484 L 163.668046 67.158612 L 160.09415 65.166605 L 156.395721 63.359815 L 152.583554 61.744911 L 148.666686 60.327175 L 144.65842 59.11276 L 140.568168 58.105749 L 136.407535 57.310311 L 132.18603 56.729667 L 127.917705 56.367064 L 123.614506 56.22458 L 119.286075 56.303699 L 114.944321 56.605477 L 110.601131 57.130301 L 106.268336 57.877897 L 101.957666 58.847341 L 97.680721 60.037069 L 93.446613 61.445736 L 89.268939 63.069959 L 85.156452 64.907438 L 81.122244 66.953388 L 77.174608 69.204627 L 73.323853 71.656483 L 69.579976 74.303766 L 65.952642 77.140797 L 62.449203 80.1632 L 59.080689 83.362822 L 55.853839 86.734623 L 52.778754 90.269405 L 49.861509 93.961547 L 47.111187 97.80092 L 44.53315 101.781413 L 42.13404 105.894522 L 39.920037 110.131458 L 37.896848 114.48317 L 36.069703 118.94037 L 34.443343 123.493567 L 33.021231 128.135866 L 31.808146 132.854766 L 30.806808 137.643175 L 30.020759 142.488222 L 29.451974 147.382701 L 29.102743 152.313499 L 28.974305 157.273371 L 29.067815 162.252119 L 29.383942 167.23953 L 29.92247 172.222363 L 30.683222 177.193507 L 31.665423 182.14288 L 32.867831 187.060485 L 34.289691 191.939433 L 35.928176 196.766902 L 37.780688 201.533253 L 39.844199 206.229015 L 42.116744 210.847765 L 44.593243 215.377457 L 47.269436 219.809214 L 50.142554 224.137094 L 53.205964 228.349882 L 56.456414 232.442005 L 59.888552 236.405384 L 63.494327 240.229809 L 67.269848 243.910322 L 71.208793 247.439699 L 75.304543 250.811023 L 76.077758 251.415976 L 76.077758 251.415976 " style="fill:none;stroke:#66023c;stroke-linecap:square;stroke-width:3;"/>
      </g>
      <g id="g-7">
        <path clip-path="url(#p26bd5e0cd7)" d="M 174.622164 140.256 L 174.511081 137.495074 L 174.178547 134.751996 L 173.626714 132.044501 L 172.859148 129.39009 L 171.880812 126.805925 L 170.69803 124.30871 L 169.318449 121.91459 L 167.750988 119.639043 L 166.005778 117.496778 L 164.094104 115.501646 L 162.028323 113.666543 L 159.82179 112.003334 L 157.488769 110.522771 L 155.044344 109.234424 L 152.504316 108.146624 L 149.885105 107.266402 L 147.203646 106.599448 L 144.477272 106.150075 L 141.723608 105.921187 L 138.960457 105.914264 L 136.205681 106.129351 L 133.477089 106.565057 L 130.792321 107.218566 L 128.168733 108.085653 L 125.623286 109.160712 L 123.172436 110.436793 L 120.832026 111.905648 L 118.617186 113.557779 L 116.542235 115.382507 L 114.620588 117.368036 L 112.864666 119.501529 L 111.285822 121.769193 L 109.894261 124.15637 L 108.698981 126.647626 L 107.707709 129.226857 L 106.926852 131.877388 L 106.361458 134.582085 L 106.015184 137.323462 L 105.890267 140.083796 L 105.987515 142.845245 L 106.306299 145.589954 L 106.844559 148.300181 L 107.598814 150.958404 L 108.564189 153.54744 L 109.734443 156.050549 L 111.10201 158.451552 L 112.658049 160.734925 L 114.392502 162.885908 L 116.294155 164.890594 L 118.350715 166.736025 L 120.548886 168.41027 L 122.874458 169.902505 L 125.312398 171.203084 L 127.846943 172.303598 L 130.46171 173.196934 L 133.139794 173.877316 L 135.863882 174.340345 L 138.616364 174.583028 L 141.379446 174.603797 L 144.135265 174.402516 L 146.866006 173.980488 L 149.554015 173.34044 L 152.181914 172.486511 L 154.732716 171.42422 L 157.18993 170.160435 L 159.537671 168.703327 L 161.760762 167.062314 L 163.84483 165.248006 L 165.776402 163.272132 L 167.542993 161.147464 L 169.13318 158.88774 L 170.536685 156.507566 L 171.744433 154.02233 L 172.748617 151.448099 L 173.542746 148.801514 L 174.121685 146.099684 L 174.481692 143.360077 L 174.620439 140.600403 L 174.622164 140.256 L 174.622164 140.256 " style="fill:none;stroke:#66023c;stroke-linecap:square;stroke-width:3;"/>
      </g>
    </g>
  </g>
</svg>